<svg width="100" height="100" viewBox="0 0 90 105" fill="none" xmlns="http://www.w3.org/2000/svg">
<path d="M84.9984 105C87.7594 104.995 89.9953 102.759 90 99.9984V5.0016C89.9953 2.24064 87.7594 0.00468 84.9984 0H5.0016C2.24064 0.0046872 0.00468 2.24064 0 5.0016V99.9984C0.0046872 102.759 2.24064 104.995 5.0016 105H84.9984ZM5.0016 5.0016H84.9984L85.0031 100.003L5.00149 99.9985L5.0016 5.0016Z" fill="#3572CC"/>
<path d="M77.4985 8.75159H12.5017C11.8361 8.75159 11.2033 9.01409 10.7345 9.48284C10.261 9.95159 9.99854 10.5891 9.99854 11.2501V28.7485C9.99854 29.4141 10.261 30.0469 10.7345 30.5157C11.2032 30.9892 11.836 31.2517 12.5017 31.2517H77.4985C78.1641 31.2517 78.7969 30.9892 79.2658 30.5157C79.7392 30.047 80.0017 29.4142 80.0017 28.7485V11.2501C80.0017 10.5891 79.7392 9.95168 79.2658 9.48284C78.797 9.0141 78.1642 8.75159 77.4985 8.75159ZM75.0001 26.25H15.0001V13.7484H75.0001V26.25Z" fill="#3572CC"/>
<path d="M27.5017 78.75H12.5017C11.8361 78.75 11.2033 79.0125 10.7345 79.4813C10.261 79.95 9.99854 80.5875 9.99854 81.2485V93.7501C9.99854 94.411 10.261 95.0485 10.7345 95.5173C11.2032 95.9861 11.836 96.2486 12.5017 96.2486H27.5017C28.1626 96.2486 28.8001 95.9861 29.269 95.5173C29.7378 95.0486 30.0002 94.4111 30.0002 93.7501V81.2485C30.0002 80.5876 29.7377 79.9501 29.269 79.4813C28.8002 79.0124 28.1627 78.75 27.5017 78.75ZM25.0033 91.2516H15.0002V83.7516H24.9986L25.0033 91.2516Z" fill="#3572CC"/>
<path d="M52.5 78.75H37.5C36.839 78.75 36.2016 79.0125 35.7327 79.4813C35.2639 79.95 35.0015 80.5875 35.0015 81.2485V93.7501C35.0015 94.411 35.264 95.0485 35.7327 95.5173C36.2015 95.9862 36.839 96.2486 37.5 96.2486H52.5C53.1609 96.2486 53.7984 95.9861 54.2672 95.5173C54.736 95.0486 54.9985 94.4111 54.9985 93.7501V81.2485C54.9985 80.5876 54.736 79.9501 54.2672 79.4813C53.7984 79.0124 53.1609 78.75 52.5 78.75ZM50.0016 91.2516H39.9985V83.7516H49.9969L50.0016 91.2516Z" fill="#3572CC"/>
<path d="M77.4983 56.25H62.4983C61.8373 56.25 61.1999 56.5125 60.731 56.9813C60.2622 57.45 59.9998 58.0875 59.9998 58.7485V93.7501C59.9998 94.411 60.2623 95.0485 60.731 95.5173C61.1998 95.9862 61.8373 96.2486 62.4983 96.2486H77.4983C78.1639 96.2486 78.7967 95.9861 79.2655 95.5173C79.7389 95.0486 80.0014 94.4111 80.0014 93.7501V58.7485C80.0014 58.0876 79.7389 57.4501 79.2655 56.9813C78.7967 56.5125 78.1639 56.25 77.4983 56.25ZM74.9999 91.2516H65.0015V61.2516H74.9999V91.2516Z" fill="#3572CC"/>
<path d="M27.5017 57.5015H12.5017C11.8361 57.5015 11.2033 57.764 10.7345 58.2328C10.261 58.7015 9.99854 59.339 9.99854 60V72.5016C9.99854 73.1626 10.261 73.8 10.7345 74.2689C11.2032 74.7376 11.836 75.0001 12.5017 75.0001H27.5017C28.1626 75.0001 28.8001 74.7376 29.269 74.2689C29.7378 73.8001 30.0002 73.1626 30.0002 72.5016V60C30.0002 59.3391 29.7377 58.7016 29.269 58.2328C28.8002 57.7639 28.1627 57.5015 27.5017 57.5015ZM25.0033 70.0031L15.0002 69.9984V62.4984H24.9986L25.0033 70.0031Z" fill="#3572CC"/>
<path d="M52.5 57.5015H37.5C36.839 57.5015 36.2016 57.764 35.7327 58.2328C35.2639 58.7015 35.0015 59.339 35.0015 60V72.5016C35.0015 73.1626 35.264 73.8 35.7327 74.2689C36.2015 74.7377 36.839 75.0001 37.5 75.0001H52.5C53.1609 75.0001 53.7984 74.7376 54.2672 74.2689C54.736 73.8001 54.9985 73.1626 54.9985 72.5016V60C54.9985 59.3391 54.736 58.7016 54.2672 58.2328C53.7984 57.7639 53.1609 57.5015 52.5 57.5015ZM50.0016 70.0031L39.9985 69.9984V62.4984H49.9969L50.0016 70.0031Z" fill="#3572CC"/>
<path d="M27.5017 36.2485H12.5017C11.8361 36.2485 11.2033 36.511 10.7345 36.9845C10.261 37.4532 9.99854 38.086 9.99854 38.7517V51.2533V51.2486C9.99854 51.9142 10.261 52.547 10.7345 53.0159C11.2032 53.4893 11.836 53.7518 12.5017 53.7518H27.5017C28.1626 53.7518 28.8001 53.4893 29.269 53.0159C29.7377 52.5471 30.0002 51.9143 30.0002 51.2486V38.747V38.7517C30.0002 38.0861 29.7377 37.4533 29.269 36.9845C28.8002 36.511 28.1627 36.2485 27.5017 36.2485ZM25.0033 48.7501H15.0002V41.2501H24.9986L25.0033 48.7501Z" fill="#3572CC"/>
<path d="M52.5 36.2485H37.5C36.839 36.2485 36.2016 36.511 35.7327 36.9845C35.264 37.4532 35.0015 38.086 35.0015 38.7517V51.2533V51.2486C35.0015 51.9142 35.264 52.547 35.7327 53.0159C36.2015 53.4893 36.839 53.7518 37.5 53.7518H52.5C53.1609 53.7518 53.7984 53.4893 54.2672 53.0159C54.7359 52.5471 54.9985 51.9143 54.9985 51.2486V38.747V38.7517C54.9985 38.0861 54.736 37.4533 54.2672 36.9845C53.7985 36.511 53.1609 36.2485 52.5 36.2485ZM50.0016 48.7501H39.9985V41.2501H49.9969L50.0016 48.7501Z" fill="#3572CC"/>
<path d="M77.4983 36.2485H62.4983C61.8373 36.2485 61.1999 36.511 60.731 36.9845C60.2623 37.4532 59.9998 38.086 59.9998 38.7517V51.2533V51.2486C59.9998 51.9142 60.2623 52.547 60.731 53.0159C61.1998 53.4893 61.8373 53.7518 62.4983 53.7518H77.4983C78.1639 53.7518 78.7967 53.4893 79.2655 53.0159C79.7389 52.5471 80.0014 51.9143 80.0014 51.2486V38.747V38.7517C80.0014 38.0861 79.7389 37.4533 79.2655 36.9845C78.7967 36.511 78.1639 36.2485 77.4983 36.2485ZM74.9999 48.7501H65.0015V41.2501H74.9999V48.7501Z" fill="#3572CC"/>
</svg>
