<svg width="100" height="100" viewBox="0 0 100 100" fill="none" xmlns="http://www.w3.org/2000/svg">
<path d="M68.0878 13.6734C67.5238 12.017 65.9651 10.9156 64.2199 10.9289H57.1278L53.5041 2.48687C52.8602 0.977014 51.3769 0 49.7383 0C48.0996 0 46.6163 0.976991 45.9724 2.48687L42.3487 10.9289H35.2566C33.5159 10.9289 31.966 12.0303 31.3887 13.6734C30.8158 15.3121 31.3399 17.1417 32.6987 18.2297L38.9248 23.2123L36.0427 32.8178H36.0382C35.5275 34.5143 36.1626 36.3439 37.6147 37.3608C39.0668 38.3733 41.0075 38.3423 42.4242 37.2765L49.7382 31.792L57.0523 37.2765C58.469 38.3378 60.4096 38.3733 61.8618 37.3564C63.3139 36.3439 63.9489 34.5143 63.4383 32.8178L60.5561 23.2079L66.7778 18.2297C68.15 17.1506 68.6785 15.3121 68.0878 13.6734ZM57.2699 19.7752H57.2655C55.9511 20.8143 55.4092 22.5551 55.8933 24.1583L58.3446 32.325L52.194 27.7154H52.1984C50.7373 26.6274 48.739 26.6274 47.278 27.7154L41.1274 32.325L43.5787 24.1583H43.5831C44.0672 22.5551 43.5254 20.8188 42.2153 19.7796L37.0729 15.6629H42.7705C44.4136 15.6674 45.8968 14.6904 46.5407 13.1805L49.7381 5.71543L52.9356 13.176V13.1805C53.5795 14.6859 55.0627 15.6674 56.7058 15.6629H62.4034L57.2699 19.7752Z" fill="#3572CC"/>
<path d="M77.2087 21.5246C77.2087 22.1507 77.4619 22.7546 77.906 23.1988C78.35 23.643 78.9495 23.8916 79.5802 23.8916H85.2645C86.5745 23.8916 87.6314 22.8347 87.6314 21.5246C87.6314 20.2146 86.5745 19.1577 85.2645 19.1577H79.5802C78.9496 19.1577 78.3501 19.4064 77.906 19.8505C77.4618 20.2946 77.2087 20.8984 77.2087 21.5246Z" fill="#3572CC"/>
<path d="M79.2913 8.04256L76.4492 11.0046C75.5477 11.9461 75.5832 13.4426 76.5246 14.3486C77.4661 15.2501 78.9626 15.2234 79.8686 14.282L82.7107 11.3199V11.3243C83.6122 10.3784 83.5767 8.88191 82.6352 7.98039C81.6938 7.07445 80.1973 7.1011 79.2913 8.04256Z" fill="#3572CC"/>
<path d="M76.4492 32.045L79.2913 35.0071C80.1972 35.9486 81.6938 35.9752 82.6352 35.0693C83.5767 34.1678 83.6122 32.6712 82.7107 31.7253L79.8686 28.7633V28.7677C78.9627 27.8262 77.4661 27.7996 76.5246 28.7011C75.5832 29.607 75.5477 31.1036 76.4492 32.045Z" fill="#3572CC"/>
<path d="M11.844 21.5246C11.844 22.1507 12.0927 22.7546 12.5368 23.1988C12.9809 23.643 13.5848 23.8916 14.211 23.8916H19.8953C21.2053 23.8916 22.2667 22.8347 22.2667 21.5246C22.2667 20.2146 21.2053 19.1577 19.8953 19.1577H14.211C13.5849 19.1577 12.9809 19.4064 12.5368 19.8505C12.0926 20.2946 11.844 20.8984 11.844 21.5246Z" fill="#3572CC"/>
<path d="M23.026 11.0041L20.1839 8.04202C19.2779 7.09612 17.7769 7.06503 16.8355 7.97096C15.8896 8.8769 15.8585 10.3779 16.7644 11.3238L19.6066 14.2859V14.2814C20.5125 15.2229 22.0091 15.2495 22.9505 14.348C23.892 13.4421 23.9275 11.9455 23.026 11.0041Z" fill="#3572CC"/>
<path d="M19.6063 28.7675L16.7642 31.7296V31.7251C15.8582 32.671 15.8893 34.172 16.8352 35.0779C17.7767 35.9839 19.2776 35.9528 20.1836 35.0069L23.0257 32.0448C23.9272 31.1033 23.8917 29.6068 22.9503 28.7008C22.0088 27.7994 20.5123 27.826 19.6063 28.7675Z" fill="#3572CC"/>
<path d="M94.7367 85.4727H92.3698V54.6843C92.3653 52.0687 90.247 49.9504 87.6313 49.9459H73.4206C70.8094 49.9504 68.6867 52.0687 68.6867 54.6843V85.4727H62.7626V47.579C62.7626 44.9633 60.6399 42.845 58.0286 42.8406H41.4465C38.8352 42.845 36.7125 44.9633 36.7125 47.579V85.4727H30.7884V61.7897C30.7884 59.174 28.6657 57.0557 26.0545 57.0513H11.8438C9.22809 57.0557 7.10978 59.174 7.10535 61.7897V85.4727H4.73841C2.12274 85.4771 0.00443374 87.5954 0 90.2111V94.9495V94.9451C0.00444056 97.5607 2.12274 99.679 4.73841 99.6835H94.7365C97.3521 99.679 99.4705 97.5607 99.4749 94.9451V90.2111C99.4704 87.5954 97.3524 85.4771 94.7367 85.4727ZM73.4206 54.6843H87.6313V85.4727H73.4206V54.6843ZM41.4466 47.579H58.0242L58.0287 85.4727H41.451L41.4466 47.579ZM11.844 61.7897H26.0547V85.4727H11.844V61.7897ZM4.73864 94.945V90.211H94.7367L94.7411 94.9494L4.73864 94.945Z" fill="#3572CC"/>
</svg>
