<svg width="100" height="100" viewBox="0 0 110 115" fill="none" xmlns="http://www.w3.org/2000/svg">
<path d="M105.794 64.0108C102.27 61.3513 97.4845 61.1171 93.7218 63.4279L87.1046 67.5343L86.6946 39.4976H87.9973H87.9921C90.3639 39.5236 92.4814 38.0091 93.2236 35.7503C93.4208 35.1622 93.5246 34.5429 93.5298 33.9184C93.5298 32.206 92.7305 30.5927 91.3708 29.5622L54.7243 1.16714C52.7365 -0.389047 49.9547 -0.389047 47.967 1.16714L11.3205 29.5622C9.44687 31.009 8.69951 33.4968 9.46254 35.7451C10.2255 37.9883 12.3327 39.4976 14.6992 39.4976H16.0019L15.4414 75.8255C13.272 74.5764 10.5369 74.9407 8.77231 76.7207L1.63088 83.882C0.556559 84.9542 -0.0299141 86.4166 0.00117596 87.9364C0.0530752 89.4613 0.712209 90.8978 1.82805 91.9335L25.8259 113.584C27.6424 115.203 30.2893 115.458 32.386 114.224L41.2713 108.869V108.864C42.7816 107.974 43.7729 106.402 43.9286 104.648V104.622H70.8335V104.617C75.4007 104.606 79.8173 102.988 83.3153 100.037L106.208 80.6911C108.683 78.5989 110.08 75.4971 109.996 72.2495C109.919 69.007 108.368 65.973 105.794 64.0108ZM14.6997 33.9503L51.3462 5.55524L87.9926 33.9503H86.6899H86.6951C85.216 33.9555 83.7991 34.554 82.7612 35.6158C81.7232 36.6723 81.1471 38.0983 81.1575 39.5816L81.6298 70.9745L70.7205 77.7768V36.5565C70.7153 35.0265 69.4801 33.7878 67.9543 33.7826H34.7383C33.2125 33.7878 31.9773 35.0265 31.9721 36.5565V67.8095C30.0881 68.1426 28.2873 68.8504 26.6835 69.8913L21.0109 73.6126L21.5351 39.5803C21.5454 38.097 20.9694 36.671 19.9314 35.6144C18.8934 34.5527 17.4765 33.9542 15.9974 33.949L14.6997 33.9503ZM65.1879 79.3023H64.6326V79.1097C64.7416 76.0963 63.6205 73.1714 61.5342 71.0063C59.4427 68.8361 56.5674 67.613 53.5624 67.6181H37.5045V39.3323H65.188L65.1879 79.3023ZM29.5326 109.447L5.53477 87.796L12.6762 80.6346L15.8888 83.5751L32.9113 99.069L38.4179 104.091L37.5356 104.617L29.5326 109.447ZM102.638 76.4444L79.7458 95.7901C77.2494 97.9031 74.0939 99.0585 70.8346 99.0689H41.1635L20.7091 80.4426L22.0066 79.5839L29.7293 74.5303C30.4144 74.067 31.1721 73.7183 31.9714 73.505C32.7032 73.2812 33.4713 73.1667 34.2394 73.1719H53.5618C55.0617 73.1667 56.4992 73.7808 57.5477 74.8633C58.5909 75.9458 59.1513 77.4084 59.0943 78.9177V79.308L53.3646 79.3028C52.9546 79.2924 52.5446 79.3913 52.1761 79.5838C51.0083 80.1407 50.3803 81.4314 50.6658 82.6961C50.9513 83.9608 52.0723 84.8559 53.3645 84.8559H69.0584C69.5774 84.8455 70.0808 84.705 70.5272 84.4396L70.7192 84.3303L78.307 79.5838L81.7375 77.4447L87.2181 74.0305L96.6275 68.1442C98.4389 67.0357 100.743 67.145 102.44 68.4253C103.681 69.3725 104.423 70.8298 104.464 72.3911C104.49 73.9473 103.821 75.4358 102.637 76.4455L102.638 76.4444Z" fill="#3572CC"/>
</svg>
