<svg width="180" height="45" viewBox="0 0 180 45" fill="none" xmlns="http://www.w3.org/2000/svg">
<path d="M0.593018 42.2056V32.7153H1.48933V42.2056H0.593018Z" fill="white"/>
<path d="M5.64145 42.2056H4.85059V35.3779H5.64145V36.406H5.66781C5.86552 36.0106 6.15551 35.7074 6.53776 35.5097C6.92001 35.2988 7.32862 35.1933 7.77677 35.1933C8.09312 35.1933 8.35674 35.2329 8.58081 35.2988C8.80489 35.3647 8.98942 35.457 9.13442 35.5756C9.29259 35.6942 9.41122 35.8392 9.51666 35.9974C9.62211 36.1556 9.7012 36.3269 9.78029 36.5114C10.0044 36.0633 10.3207 35.7338 10.703 35.5229C11.0852 35.312 11.5202 35.1933 12.0211 35.1933C12.4824 35.1933 12.8515 35.2724 13.1283 35.4174C13.4051 35.5756 13.616 35.7733 13.7741 36.0237C13.9191 36.2742 14.0246 36.5642 14.0641 36.8937C14.1168 37.2232 14.13 37.5527 14.13 37.8955V42.2056H13.3392V37.4868C13.3392 36.9991 13.2337 36.6037 13.0228 36.3269C12.8119 36.0501 12.4297 35.9051 11.8629 35.9051C11.5729 35.9051 11.2961 35.971 11.0325 36.1028C10.7689 36.2346 10.5316 36.4192 10.3207 36.6828C10.2284 36.8014 10.1625 36.9332 10.0966 37.0914C10.0439 37.2496 9.99118 37.4078 9.96482 37.5659C9.92528 37.7373 9.9121 37.8955 9.88573 38.0668C9.88573 38.2382 9.87255 38.3831 9.87255 38.5281V42.2056H9.08169V37.4868C9.08169 36.9991 8.97624 36.6037 8.76535 36.3269C8.55445 36.0501 8.1722 35.9051 7.60542 35.9051C7.31544 35.9051 7.03863 35.971 6.77501 36.1028C6.51139 36.2346 6.27414 36.4192 6.06324 36.6828C5.97097 36.8014 5.90507 36.9332 5.83916 37.0914C5.78644 37.2496 5.73371 37.4078 5.69417 37.5659C5.65463 37.7373 5.64145 37.8955 5.62827 38.0668C5.62827 38.2382 5.61508 38.3831 5.61508 38.5281V42.2056H5.64145Z" fill="white"/>
<path d="M17.7547 42.2056H16.9639V35.3779H17.7547V36.406H17.7811C17.9788 36.0106 18.2688 35.7074 18.651 35.5097C19.0333 35.2988 19.4419 35.1933 19.8901 35.1933C20.2064 35.1933 20.47 35.2329 20.6941 35.2988C20.9182 35.3647 21.1027 35.457 21.2477 35.5756C21.4059 35.6942 21.5245 35.8392 21.6299 35.9974C21.7354 36.1556 21.8145 36.3269 21.8936 36.5114C22.1176 36.0633 22.434 35.7338 22.8162 35.5229C23.1985 35.312 23.6335 35.1933 24.1343 35.1933C24.5957 35.1933 24.9647 35.2724 25.2415 35.4174C25.5183 35.5756 25.7292 35.7733 25.8874 36.0237C26.0324 36.2742 26.1379 36.5642 26.1774 36.8937C26.2301 37.2232 26.2433 37.5527 26.2433 37.8955V42.2056H25.4524V37.4868C25.4524 36.9991 25.347 36.6037 25.1361 36.3269C24.9252 36.0501 24.543 35.9051 23.9762 35.9051C23.6862 35.9051 23.4094 35.971 23.1458 36.1028C22.8821 36.2346 22.6449 36.4192 22.434 36.6828C22.3417 36.8014 22.2758 36.9332 22.2099 37.0914C22.1572 37.2496 22.1045 37.4078 22.0781 37.5659C22.0386 37.7373 22.0254 37.8955 21.999 38.0668C21.999 38.2382 21.9858 38.3831 21.9858 38.5281V42.2056H21.195V37.4868C21.195 36.9991 21.0895 36.6037 20.8786 36.3269C20.6677 36.0501 20.2855 35.9051 19.7187 35.9051C19.4287 35.9051 19.1519 35.971 18.8883 36.1028C18.6247 36.2346 18.3874 36.4192 18.1765 36.6828C18.0843 36.8014 18.0183 36.9332 17.9524 37.0914C17.8997 37.2496 17.847 37.4078 17.8075 37.5659C17.7679 37.7373 17.7547 37.8955 17.7415 38.0668C17.7415 38.2382 17.7284 38.3831 17.7284 38.5281V42.2056H17.7547Z" fill="white"/>
<path d="M31.8978 42.3902C31.4628 42.3902 31.0411 42.2979 30.6588 42.1529C30.2766 42.0079 29.947 41.7839 29.657 41.4807C29.3671 41.1775 29.143 40.8085 28.9848 40.3603C28.8135 39.9121 28.7344 39.3849 28.7344 38.7918C28.7344 38.2909 28.8003 37.8164 28.9321 37.3814C29.0639 36.9464 29.2616 36.5642 29.5252 36.2346C29.7889 35.9051 30.1184 35.6547 30.5138 35.4701C30.9092 35.2856 31.3706 35.1933 31.8978 35.1933C32.4251 35.1933 32.8996 35.2856 33.295 35.4701C33.6904 35.6547 34.02 35.9183 34.2836 36.2346C34.5472 36.551 34.7449 36.9332 34.8767 37.3814C35.0085 37.8295 35.0613 38.2909 35.0613 38.7918C35.0613 39.3322 34.9822 39.8331 34.8372 40.268C34.6922 40.703 34.4813 41.0853 34.2045 41.4016C33.9277 41.7179 33.5982 41.9552 33.2027 42.1266C32.8073 42.2979 32.3855 42.3902 31.911 42.3902H31.8978ZM34.2177 38.7918C34.2177 38.3831 34.1781 38.0141 34.0859 37.6582C33.9936 37.3023 33.8618 36.9991 33.6773 36.7355C33.4927 36.4719 33.2555 36.2742 32.9655 36.1292C32.6755 35.9842 32.3196 35.9051 31.8978 35.9051C31.476 35.9051 31.1333 35.9842 30.8302 36.1424C30.5402 36.3005 30.3029 36.5246 30.1184 36.7882C29.9338 37.0519 29.802 37.3682 29.7098 37.7109C29.6175 38.0536 29.578 38.4227 29.578 38.7918C29.578 39.2136 29.6307 39.5958 29.7361 39.9517C29.8416 40.3076 29.9866 40.6107 30.1711 40.8744C30.3556 41.138 30.6061 41.3225 30.8961 41.4675C31.186 41.6125 31.5156 41.6784 31.8978 41.6784C32.3064 41.6784 32.6623 41.5993 32.9523 41.4411C33.2423 41.283 33.4927 41.0589 33.6641 40.7821C33.8354 40.5053 33.9804 40.2021 34.0727 39.8594C34.165 39.5167 34.2045 39.1608 34.2045 38.7918H34.2177Z" fill="white"/>
<path d="M38.5279 42.2056H37.7371V32.7153H38.5279V36.4719C38.7784 36.0501 39.1342 35.7338 39.5692 35.5229C40.0174 35.312 40.4787 35.1933 40.9664 35.1933C41.4805 35.1933 41.9286 35.2988 42.3109 35.4833C42.6931 35.681 43.0095 35.9447 43.2599 36.2742C43.5103 36.6037 43.6949 36.986 43.8135 37.4341C43.9321 37.8691 43.998 38.3304 43.998 38.8049C43.998 39.3058 43.9453 39.7803 43.8267 40.2153C43.7081 40.6503 43.5367 41.0325 43.2731 41.3489C43.0227 41.6652 42.7063 41.9288 42.3241 42.1134C41.9418 42.2979 41.4673 42.3902 40.9137 42.3902C40.6896 42.3902 40.4655 42.3638 40.2415 42.2979C40.0174 42.232 39.7933 42.1529 39.5824 42.0343C39.3715 41.9157 39.1738 41.7707 38.9893 41.5993C38.8047 41.428 38.6597 41.2302 38.5543 40.993H38.5279V42.1925V42.2056ZM38.5279 38.7654C38.5279 39.174 38.5806 39.5694 38.6861 39.9253C38.7915 40.2812 38.9365 40.5844 39.1211 40.848C39.3056 41.1116 39.556 41.3093 39.846 41.4543C40.136 41.5993 40.4655 41.6784 40.8346 41.6784C41.1641 41.6784 41.4805 41.6257 41.7573 41.507C42.0341 41.3884 42.2845 41.2171 42.4954 40.9798C42.7063 40.7557 42.8645 40.4789 42.9963 40.1494C43.1149 39.8199 43.1676 39.4376 43.1676 39.0026C43.1808 38.5677 43.1545 38.1722 43.0622 37.79C42.9699 37.4209 42.8381 37.0914 42.6404 36.8146C42.4427 36.5378 42.2054 36.3137 41.9023 36.1424C41.5991 35.9842 41.2432 35.9051 40.8346 35.9051C40.4787 35.9051 40.1492 35.9842 39.8724 36.1292C39.5824 36.2874 39.3451 36.4851 39.1474 36.7487C38.9497 37.0123 38.7915 37.3155 38.6861 37.6582C38.5806 38.0009 38.5279 38.37 38.5279 38.7522V38.7654Z" fill="white"/>
<path d="M46.9111 33.8884V32.7153H47.7811V33.8884H46.9111ZM46.9507 42.2056V35.3779H47.7415V42.2056H46.9507Z" fill="white"/>
<path d="M51.0105 42.2056V32.7153H51.8014V42.2056H51.0105Z" fill="white"/>
<path d="M55.0305 33.8884V32.7153H55.9005V33.8884H55.0305ZM55.0701 42.2056V35.3779H55.8609V42.2056H55.0701Z" fill="white"/>
<path d="M59.4989 38.9763C59.4989 39.3453 59.5516 39.688 59.6438 40.0176C59.7361 40.3471 59.8811 40.6371 60.0788 40.8743C60.2634 41.1116 60.5006 41.3093 60.7906 41.4543C61.0806 41.5993 61.4101 41.6784 61.7924 41.6784C62.3064 41.6784 62.7546 41.5466 63.1236 41.2698C63.4927 40.993 63.7431 40.6107 63.8618 40.1098H64.7449C64.6526 40.4394 64.5208 40.7293 64.3627 41.0061C64.2045 41.2829 64.0068 41.5202 63.7695 41.7311C63.5323 41.942 63.2555 42.1002 62.9259 42.2188C62.5964 42.3374 62.2273 42.3901 61.7924 42.3901C61.2519 42.3901 60.7774 42.2979 60.382 42.1133C59.9866 41.9288 59.657 41.6784 59.4066 41.3488C59.1562 41.0325 58.9584 40.6503 58.8398 40.2153C58.7212 39.7803 58.6553 39.3058 58.6553 38.8049C58.6553 38.304 58.7212 37.8295 58.8793 37.3945C59.0243 36.9596 59.2352 36.5773 59.4989 36.2346C59.7625 35.8919 60.092 35.6415 60.4874 35.4569C60.8697 35.2724 61.3178 35.1801 61.8055 35.1801C62.7414 35.1801 63.4795 35.5097 64.0199 36.1555C64.5604 36.8014 64.824 37.7372 64.8108 38.9631H59.512L59.4989 38.9763ZM63.954 38.3172C63.954 37.9877 63.9013 37.6713 63.8222 37.3814C63.73 37.0914 63.5982 36.8278 63.4136 36.6169C63.2291 36.406 63.005 36.2346 62.7414 36.1028C62.4646 35.971 62.1614 35.9051 61.8055 35.9051C61.4496 35.9051 61.1465 35.971 60.8697 36.1028C60.6061 36.2346 60.3688 36.406 60.1843 36.63C59.9997 36.8541 59.8416 37.1046 59.7229 37.3945C59.6043 37.6845 59.5384 37.9877 59.4989 38.3172H63.954Z" fill="white"/>
<path d="M68.2645 42.2056H67.4736V35.3779H68.2645V36.3269C68.5808 35.9974 68.9104 35.7206 69.2531 35.5097C69.5958 35.2988 69.9912 35.1933 70.4657 35.1933C70.8875 35.1933 71.2829 35.2592 71.6388 35.4174C71.9947 35.5756 72.2979 35.8129 72.5483 36.1819C72.7197 36.4324 72.8119 36.6828 72.8383 36.9464C72.8647 37.21 72.891 37.4737 72.891 37.7505V42.2188H72.1002V37.7636C72.1002 37.1441 71.9684 36.6828 71.6916 36.3796C71.4148 36.0765 70.9666 35.9183 70.3339 35.9183C70.0835 35.9183 69.8594 35.9578 69.6617 36.0237C69.464 36.0897 69.2794 36.1951 69.1081 36.3137C68.9499 36.4324 68.8049 36.5774 68.6995 36.7355C68.5808 36.8937 68.5018 37.065 68.4358 37.2364C68.3568 37.4605 68.304 37.6714 68.2909 37.8691C68.2777 38.0668 68.2645 38.2909 68.2645 38.5281V42.2056Z" fill="white"/>
<path d="M88.2862 40.9403H88.3126L90.382 32.7153H91.3047L88.8134 42.2056H87.8249L85.6236 33.8225H85.5973L83.3961 42.2056H82.4075L79.9558 32.7153H80.8521L82.8952 40.9403H82.9215L85.1228 32.7153H86.1245L88.2862 40.9403Z" fill="white"/>
<path d="M94.0728 38.9763C94.0728 39.3453 94.1256 39.688 94.2178 40.0176C94.3101 40.3471 94.4551 40.6371 94.6528 40.8743C94.8373 41.1116 95.0746 41.3093 95.3646 41.4543C95.6545 41.5993 95.9841 41.6784 96.3663 41.6784C96.8804 41.6784 97.3285 41.5466 97.6976 41.2698C98.0667 40.993 98.3171 40.6107 98.4357 40.1098H99.3189C99.2266 40.4394 99.0948 40.7293 98.9366 41.0061C98.7784 41.2829 98.5807 41.5202 98.3435 41.7311C98.1062 41.942 97.8294 42.1002 97.4999 42.2188C97.1704 42.3374 96.8013 42.3901 96.3663 42.3901C95.8259 42.3901 95.3514 42.2979 94.956 42.1133C94.5605 41.9288 94.231 41.6784 93.9806 41.3488C93.7301 41.0325 93.5324 40.6503 93.4138 40.2153C93.2952 39.7803 93.2292 39.3058 93.2292 38.8049C93.2292 38.304 93.2952 37.8295 93.4533 37.3945C93.5983 36.9596 93.8092 36.5773 94.0728 36.2346C94.3365 35.8919 94.666 35.6415 95.0614 35.4569C95.4437 35.2724 95.8918 35.1801 96.3795 35.1801C97.3154 35.1801 98.0535 35.5097 98.5939 36.1555C99.1343 36.8014 99.398 37.7372 99.3848 38.9631H94.086L94.0728 38.9763ZM98.528 38.3172C98.528 37.9877 98.4753 37.6713 98.3962 37.3814C98.3039 37.0914 98.1721 36.8278 97.9876 36.6169C97.8031 36.406 97.579 36.2346 97.3022 36.1028C97.0254 35.971 96.7222 35.9051 96.3663 35.9051C96.0104 35.9051 95.7073 35.971 95.4305 36.1028C95.1669 36.2346 94.9296 36.406 94.7451 36.63C94.5605 36.8541 94.4024 37.1046 94.2837 37.3945C94.1651 37.6845 94.0992 37.9877 94.0596 38.3172H98.5148H98.528Z" fill="white"/>
<path d="M102.865 42.2056H102.074V35.3778H102.865V36.6564H102.891C103.115 36.116 103.392 35.7337 103.735 35.5097C104.077 35.2856 104.539 35.1801 105.105 35.1801V36.0369C104.657 36.0369 104.288 36.1028 103.998 36.2478C103.708 36.3928 103.484 36.6037 103.3 36.8541C103.128 37.1046 103.01 37.4077 102.944 37.7504C102.878 38.0931 102.838 38.4622 102.838 38.8445V42.1924L102.865 42.2056Z" fill="white"/>
<path d="M109.956 42.232C109.864 42.2452 109.732 42.2847 109.574 42.3243C109.416 42.3638 109.244 42.3902 109.046 42.3902C108.651 42.3902 108.348 42.2847 108.137 42.1002C107.926 41.9025 107.834 41.5466 107.834 41.0325V36.0369H106.872V35.3779H107.834V33.4798H108.625V35.3779H109.903V36.0369H108.625V40.7162C108.625 40.8875 108.625 41.0325 108.625 41.1511C108.625 41.2698 108.664 41.3752 108.704 41.4543C108.743 41.5334 108.809 41.5861 108.901 41.6257C108.994 41.6652 109.126 41.6784 109.284 41.6784C109.389 41.6784 109.495 41.6784 109.613 41.652C109.719 41.6388 109.824 41.6125 109.93 41.5861V42.232H109.956Z" fill="white"/>
<path d="M112.856 38.9763C112.856 39.3453 112.909 39.688 113.001 40.0176C113.093 40.3471 113.238 40.6371 113.436 40.8743C113.62 41.1116 113.858 41.3093 114.148 41.4543C114.438 41.5993 114.767 41.6784 115.149 41.6784C115.663 41.6784 116.112 41.5466 116.481 41.2698C116.85 40.993 117.1 40.6107 117.219 40.1098H118.102C118.01 40.4394 117.878 40.7293 117.72 41.0061C117.561 41.2829 117.364 41.5202 117.126 41.7311C116.889 41.942 116.612 42.1002 116.283 42.2188C115.953 42.3374 115.584 42.3901 115.149 42.3901C114.609 42.3901 114.134 42.2979 113.739 42.1133C113.343 41.9288 113.014 41.6784 112.764 41.3488C112.513 41.0325 112.315 40.6503 112.197 40.2153C112.078 39.7803 112.012 39.3058 112.012 38.8049C112.012 38.304 112.078 37.8295 112.236 37.3945C112.381 36.9596 112.592 36.5773 112.856 36.2346C113.119 35.8919 113.449 35.6415 113.844 35.4569C114.227 35.2724 114.675 35.1801 115.162 35.1801C116.098 35.1801 116.836 35.5097 117.377 36.1555C117.917 36.8014 118.181 37.7372 118.168 38.9631H112.869L112.856 38.9763ZM117.311 38.3172C117.311 37.9877 117.258 37.6713 117.179 37.3814C117.087 37.0914 116.955 36.8278 116.771 36.6169C116.586 36.406 116.362 36.2346 116.085 36.1028C115.808 35.971 115.505 35.9051 115.149 35.9051C114.793 35.9051 114.49 35.971 114.213 36.1028C113.95 36.2346 113.713 36.406 113.528 36.63C113.343 36.8541 113.185 37.1046 113.067 37.3945C112.948 37.6845 112.882 37.9877 112.843 38.3172H117.298H117.311Z" fill="white"/>
<path d="M121.648 42.2056H120.857V35.3778H121.648V36.6564H121.674C121.898 36.116 122.175 35.7337 122.517 35.5097C122.86 35.2856 123.322 35.1801 123.888 35.1801V36.0369C123.44 36.0369 123.071 36.1028 122.781 36.2478C122.491 36.3928 122.267 36.6037 122.083 36.8541C121.911 37.1046 121.793 37.4077 121.727 37.7504C121.661 38.0931 121.621 38.4622 121.621 38.8445V42.1924L121.648 42.2056Z" fill="white"/>
<path d="M127.025 42.2056H126.234V35.3779H127.025V36.406H127.052C127.249 36.0106 127.539 35.7074 127.922 35.5097C128.304 35.2988 128.712 35.1933 129.161 35.1933C129.477 35.1933 129.741 35.2329 129.965 35.2988C130.189 35.3647 130.373 35.457 130.531 35.5756C130.69 35.6942 130.808 35.8392 130.914 35.9974C131.019 36.1556 131.098 36.3269 131.177 36.5114C131.401 36.0633 131.718 35.7338 132.1 35.5229C132.482 35.312 132.917 35.1933 133.418 35.1933C133.879 35.1933 134.248 35.2724 134.525 35.4174C134.802 35.5756 135.013 35.7733 135.171 36.0237C135.316 36.2742 135.422 36.5642 135.461 36.8937C135.514 37.2232 135.527 37.5527 135.527 37.8955V42.2056H134.736V37.4868C134.736 36.9991 134.631 36.6037 134.42 36.3269C134.209 36.0501 133.827 35.9051 133.26 35.9051C132.97 35.9051 132.693 35.971 132.429 36.1028C132.166 36.2346 131.929 36.4192 131.718 36.6828C131.625 36.8014 131.56 36.9332 131.507 37.0914C131.454 37.2496 131.401 37.4078 131.362 37.5659C131.322 37.7373 131.309 37.8955 131.296 38.0668C131.296 38.2382 131.27 38.3831 131.27 38.5281V42.2056H130.479V37.4868C130.479 36.9991 130.373 36.6037 130.176 36.3269C129.965 36.0501 129.582 35.9051 129.016 35.9051C128.726 35.9051 128.449 35.971 128.185 36.1028C127.908 36.2346 127.684 36.4192 127.473 36.6828C127.381 36.8014 127.315 36.9332 127.249 37.0914C127.197 37.2496 127.144 37.4078 127.104 37.5659C127.065 37.7373 127.052 37.8955 127.038 38.0668C127.038 38.2382 127.025 38.3831 127.025 38.5281V42.2056Z" fill="white"/>
<path d="M138.545 33.8884V32.7153H139.415V33.8884H138.545ZM138.585 42.2056V35.3779H139.376V42.2056H138.585Z" fill="white"/>
<path d="M144.912 42.232C144.82 42.2452 144.688 42.2847 144.53 42.3243C144.372 42.3638 144.2 42.3902 144.003 42.3902C143.607 42.3902 143.304 42.2847 143.093 42.1002C142.882 41.9025 142.79 41.5466 142.79 41.0325V36.0369H141.828V35.3779H142.79V33.4798H143.581V35.3779H144.859V36.0369H143.581V40.7162C143.581 40.8875 143.581 41.0325 143.581 41.1511C143.581 41.2698 143.62 41.3752 143.66 41.4543C143.699 41.5334 143.765 41.5861 143.858 41.6257C143.95 41.6652 144.082 41.6784 144.24 41.6784C144.345 41.6784 144.451 41.6784 144.569 41.652C144.675 41.6388 144.78 41.6125 144.886 41.5861V42.232H144.912Z" fill="white"/>
<path d="M149.71 42.232C149.618 42.2452 149.486 42.2847 149.328 42.3243C149.169 42.3638 148.998 42.3902 148.8 42.3902C148.405 42.3902 148.102 42.2847 147.891 42.1002C147.68 41.9025 147.588 41.5466 147.588 41.0325V36.0369H146.625V35.3779H147.588V33.4798H148.379V35.3779H149.657V36.0369H148.379V40.7162C148.379 40.8875 148.379 41.0325 148.379 41.1511C148.379 41.2698 148.418 41.3752 148.458 41.4543C148.497 41.5334 148.563 41.5861 148.655 41.6257C148.748 41.6652 148.879 41.6784 149.038 41.6784C149.143 41.6784 149.249 41.6784 149.367 41.652C149.473 41.6388 149.578 41.6125 149.683 41.5861V42.232H149.71Z" fill="white"/>
<path d="M152.228 42.2056V32.7153H153.018V42.2056H152.228Z" fill="white"/>
<path d="M160.795 35.3779H161.586V42.2056H160.795V41.2566C160.69 41.3752 160.571 41.507 160.439 41.6388C160.307 41.7706 160.162 41.8893 159.978 42.0079C159.806 42.1134 159.609 42.2056 159.371 42.2847C159.134 42.3638 158.884 42.3902 158.581 42.3902C158.119 42.3902 157.737 42.3242 157.434 42.2056C157.131 42.0738 156.88 41.9025 156.683 41.6652C156.498 41.4411 156.353 41.1643 156.274 40.8612C156.195 40.558 156.142 40.2285 156.142 39.8726V35.3779H156.933V39.8594C156.933 40.4525 157.065 40.9007 157.342 41.217C157.618 41.5334 158.067 41.6784 158.686 41.6784C159.016 41.6784 159.306 41.6125 159.569 41.4938C159.833 41.362 160.044 41.1907 160.215 40.9534C160.386 40.7293 160.531 40.4525 160.624 40.1362C160.716 39.8199 160.769 39.4771 160.769 39.0949V35.3779H160.795Z" fill="white"/>
<path d="M165.422 42.2056H164.631V35.3779H165.422V36.3269C165.738 35.9974 166.068 35.7206 166.41 35.5097C166.753 35.2988 167.148 35.1933 167.623 35.1933C168.045 35.1933 168.44 35.2592 168.796 35.4174C169.152 35.5756 169.455 35.8129 169.706 36.1819C169.877 36.4324 169.969 36.6828 169.996 36.9464C170.022 37.21 170.048 37.4737 170.048 37.7505V42.2188H169.257V37.7636C169.257 37.1441 169.126 36.6828 168.849 36.3796C168.572 36.0765 168.124 35.9183 167.491 35.9183C167.241 35.9183 167.017 35.9578 166.819 36.0237C166.621 36.1028 166.437 36.1951 166.265 36.3137C166.107 36.4324 165.962 36.5774 165.857 36.7355C165.751 36.8937 165.659 37.065 165.593 37.2364C165.514 37.4605 165.461 37.6714 165.448 37.8691C165.435 38.0668 165.422 38.2909 165.422 38.5281V42.2056Z" fill="white"/>
<path d="M178.365 35.3779H179.156V41.5466C179.156 42.0079 179.104 42.4429 179.011 42.8647C178.919 43.2865 178.748 43.6424 178.51 43.9587C178.273 44.275 177.944 44.5255 177.535 44.71C177.126 44.8945 176.586 45 175.94 45C175.439 45 175.004 44.9341 174.648 44.8023C174.292 44.6705 173.989 44.5123 173.765 44.3146C173.541 44.1169 173.357 43.906 173.238 43.6819C173.119 43.4578 173.053 43.2337 173.053 43.0228H173.897C173.963 43.2733 174.055 43.4842 174.187 43.6424C174.319 43.8005 174.477 43.9323 174.662 44.0246C174.846 44.1169 175.044 44.1828 175.268 44.2223C175.492 44.2619 175.716 44.275 175.953 44.275C176.494 44.275 176.915 44.1828 177.245 43.9982C177.575 43.8137 177.812 43.5765 177.983 43.2733C178.154 42.9701 178.26 42.6406 178.299 42.2583C178.352 41.8761 178.365 41.4938 178.352 41.0984C178.102 41.5202 177.746 41.8366 177.311 42.0475C176.863 42.2583 176.401 42.377 175.927 42.377C175.413 42.377 174.965 42.2715 174.569 42.087C174.187 41.8893 173.871 41.6257 173.62 41.2961C173.37 40.9666 173.185 40.5844 173.053 40.1362C172.935 39.7012 172.869 39.2399 172.869 38.7654C172.869 38.2645 172.922 37.79 173.04 37.355C173.159 36.92 173.33 36.5378 173.594 36.2083C173.844 35.8919 174.161 35.6283 174.543 35.4438C174.925 35.2592 175.4 35.167 175.953 35.167C176.177 35.167 176.401 35.1933 176.625 35.2592C176.85 35.3251 177.074 35.4042 177.285 35.5228C177.495 35.6415 177.693 35.7865 177.878 35.9578C178.062 36.1292 178.207 36.3269 178.313 36.551H178.339V35.3515L178.365 35.3779ZM178.365 38.8181C178.365 38.4095 178.313 38.0272 178.22 37.6582C178.115 37.3023 177.97 36.9991 177.772 36.7355C177.575 36.4719 177.337 36.2742 177.047 36.1292C176.757 35.9842 176.428 35.9051 176.059 35.9051C175.729 35.9051 175.413 35.9578 175.136 36.0765C174.859 36.1951 174.609 36.3664 174.398 36.6037C174.187 36.8278 174.016 37.1046 173.897 37.4341C173.778 37.7636 173.726 38.1459 173.726 38.5808C173.712 39.0158 173.739 39.4112 173.831 39.7935C173.923 40.1757 174.055 40.4921 174.253 40.7821C174.451 41.0589 174.688 41.283 174.991 41.4411C175.294 41.5993 175.65 41.6784 176.059 41.6784C176.415 41.6784 176.744 41.5993 177.034 41.4543C177.324 41.3093 177.561 41.0984 177.759 40.8348C177.957 40.5712 178.115 40.268 178.22 39.9253C178.326 39.5826 178.379 39.2135 178.379 38.8313L178.365 38.8181Z" fill="white"/>
<path d="M0.369068 26.7047C0.118629 26.4675 0 26.1643 0 25.7689V9.35852C0.0922671 9.31898 0.250439 9.27944 0.448155 9.22671C0.64587 9.17399 0.869947 9.14763 1.10721 9.14763C1.96397 9.14763 2.39894 9.50352 2.39894 10.2285V25.0176H10.7821C10.993 25.2285 11.0984 25.558 11.0984 25.9798C11.0984 26.3093 11.0061 26.5729 10.8348 26.7706C10.6634 26.9684 10.4262 27.0606 10.1362 27.0606H1.29174C0.922671 27.0606 0.619508 26.942 0.369068 26.7047Z" fill="white"/>
<path d="M16.3709 21.6828C16.8981 24.2399 18.5721 25.5053 21.3928 25.5053C22.2101 25.5053 22.9482 25.3735 23.6072 25.0967C24.2663 24.8198 24.7935 24.5299 25.189 24.2135C25.6503 24.4903 25.8876 24.8594 25.8876 25.3207C25.8876 25.5975 25.7689 25.8611 25.5185 26.1116C25.2812 26.362 24.9385 26.5861 24.5299 26.7838C24.1081 26.9815 23.6204 27.1397 23.0668 27.2452C22.5132 27.3506 21.9069 27.4165 21.2742 27.4165C19.0202 27.4165 17.2276 26.797 15.9095 25.5712C14.5914 24.3453 13.9324 22.5527 13.9324 20.1933C13.9324 19.0861 14.0905 18.0975 14.4201 17.2276C14.7364 16.3576 15.1846 15.6195 15.7645 15.0264C16.3445 14.42 17.0299 13.9587 17.8208 13.6423C18.6116 13.326 19.4816 13.1546 20.4174 13.1546C21.3006 13.1546 22.1046 13.2996 22.8427 13.5896C23.5809 13.8796 24.2267 14.3014 24.754 14.8286C25.2944 15.3691 25.703 16.0017 26.0062 16.7267C26.3093 17.4517 26.4543 18.2557 26.4543 19.1388C26.4543 19.5738 26.3621 19.877 26.1644 20.0615C25.9666 20.246 25.703 20.3647 25.3471 20.391L16.3445 21.6432L16.3709 21.6828ZM20.4043 15.0791C19.218 15.0791 18.2294 15.4877 17.4517 16.3181C16.674 17.1485 16.2654 18.3348 16.2259 19.8638L24.2663 18.7566C24.174 17.6889 23.7918 16.8058 23.1459 16.1072C22.4869 15.4218 21.5774 15.0659 20.4174 15.0659L20.4043 15.0791Z" fill="white"/>
<path d="M40.3734 15.8699C39.7538 15.3691 38.9366 15.1054 37.9085 15.1054C37.1308 15.1054 36.4322 15.1977 35.8391 15.3954C35.2459 15.5931 34.7187 15.8172 34.2969 16.0677V26.9947C34.2046 27.0343 34.0465 27.0738 33.8619 27.1265C33.6642 27.1793 33.4533 27.2056 33.2161 27.2056C32.3725 27.2056 31.9639 26.8497 31.9639 26.1511V16.1863C31.9639 15.7777 32.043 15.435 32.2143 15.1845C32.3857 14.9341 32.6625 14.6573 33.0711 14.4069C33.572 14.0905 34.2442 13.8137 35.0878 13.5633C35.9182 13.3128 36.8672 13.181 37.9217 13.181C39.6879 13.181 41.0851 13.5764 42.1133 14.3805C43.1414 15.1845 43.6422 16.4367 43.6422 18.1503V27.0079C43.55 27.0474 43.3918 27.087 43.1941 27.1397C42.9832 27.1924 42.7855 27.2188 42.5614 27.2188C41.7178 27.2188 41.3092 26.8629 41.3092 26.1643V18.2821C41.3092 17.188 41.006 16.3972 40.3865 15.8831L40.3734 15.8699Z" fill="white"/>
<path d="M57.7195 15.8699C57.1 15.3691 56.2828 15.1054 55.2547 15.1054C54.477 15.1054 53.7784 15.1977 53.1853 15.3954C52.5921 15.5931 52.0649 15.8172 51.6431 16.0677V26.9947C51.5508 27.0343 51.3927 27.0738 51.2081 27.1265C51.0104 27.1793 50.7995 27.2056 50.5623 27.2056C49.7187 27.2056 49.3101 26.8497 49.3101 26.1511V16.1863C49.3101 15.7777 49.3891 15.435 49.5605 15.1845C49.7318 14.9341 50.0087 14.6573 50.4173 14.4069C50.9181 14.0905 51.5904 13.8137 52.434 13.5633C53.2644 13.3128 54.2134 13.181 55.2679 13.181C57.0341 13.181 58.4313 13.5764 59.4594 14.3805C60.4876 15.1845 60.9884 16.4367 60.9884 18.1503V27.0079C60.8962 27.0474 60.738 27.087 60.5403 27.1397C60.3294 27.1924 60.1317 27.2188 59.9076 27.2188C59.064 27.2188 58.6554 26.8629 58.6554 26.1643V18.2821C58.6554 17.188 58.3522 16.3972 57.7327 15.8831L57.7195 15.8699Z" fill="white"/>
<path d="M68.449 21.6828C68.9762 24.2399 70.6502 25.5053 73.471 25.5053C74.2882 25.5053 75.0263 25.3735 75.6854 25.0967C76.3444 24.8198 76.8717 24.5299 77.2671 24.2135C77.7284 24.4903 77.9657 24.8594 77.9657 25.3207C77.9657 25.5975 77.847 25.8611 77.5966 26.1116C77.3462 26.362 77.0166 26.5861 76.608 26.7838C76.1862 26.9815 75.6985 27.1397 75.1449 27.2452C74.5913 27.3638 73.985 27.4165 73.3523 27.4165C71.0852 27.4165 69.3058 26.797 67.9877 25.5712C66.6695 24.3453 66.0105 22.5527 66.0105 20.1933C66.0105 19.0861 66.1687 18.0975 66.4982 17.2276C66.8145 16.3576 67.2627 15.6195 67.8427 15.0264C68.4226 14.42 69.108 13.9587 69.8989 13.6423C70.6898 13.326 71.5597 13.1546 72.4956 13.1546C73.3655 13.1546 74.1827 13.2996 74.9209 13.5896C75.659 13.8796 76.3049 14.3014 76.8321 14.8286C77.3725 15.3691 77.7811 16.0017 78.0843 16.7267C78.3875 17.4517 78.5325 18.2557 78.5325 19.1388C78.5325 19.5738 78.4402 19.877 78.2425 20.0615C78.0448 20.246 77.7811 20.3647 77.4253 20.391L68.4226 21.6432L68.449 21.6828ZM72.4824 15.0791C71.2961 15.0791 70.3075 15.4877 69.5298 16.3181C68.7521 17.1485 68.3435 18.3348 68.304 19.8638L76.3444 18.7566C76.2521 17.6889 75.8699 16.8058 75.224 16.1072C74.565 15.4218 73.6555 15.0659 72.4956 15.0659L72.4824 15.0791Z" fill="white"/>
<path d="M86.3621 27.0079C86.2698 27.0475 86.1248 27.087 85.9271 27.1397C85.7294 27.1925 85.5185 27.2188 85.2812 27.2188C84.4377 27.2188 84.0291 26.8629 84.0291 26.1643V16.2654C84.0291 15.8172 84.1081 15.4613 84.2795 15.1977C84.4508 14.9341 84.7276 14.6705 85.1099 14.42C85.6108 14.0905 86.3094 13.8005 87.1661 13.5633C88.0361 13.326 89.0115 13.1942 90.1055 13.1942C91.6609 13.1942 92.4385 13.5896 92.4385 14.3673C92.4385 14.565 92.4122 14.7364 92.3463 14.9077C92.2935 15.0791 92.2145 15.2109 92.109 15.3295C91.9113 15.29 91.6609 15.2505 91.3445 15.2109C91.0282 15.1714 90.725 15.1582 90.4087 15.1582C89.5124 15.1582 88.7215 15.2505 88.0361 15.435C87.3507 15.6195 86.7839 15.8436 86.3357 16.094V27.0211L86.3621 27.0079Z" fill="white"/>
<path d="M100.65 27.4429C99.2926 27.4429 98.1854 27.1397 97.3286 26.5334C96.485 25.9271 96.0632 24.9253 96.0632 23.5281V9.6485C96.1555 9.60896 96.3137 9.56942 96.5114 9.51669C96.7223 9.46397 96.9332 9.43761 97.1704 9.43761C97.9877 9.43761 98.3963 9.79349 98.3963 10.4921V13.8532H103.194C103.247 13.9455 103.313 14.0773 103.366 14.2487C103.418 14.42 103.458 14.5914 103.458 14.7891C103.458 15.4482 103.168 15.7777 102.575 15.7777H98.3963V23.3699C98.3963 24.1476 98.6204 24.7012 99.0553 25.0176C99.4903 25.3339 100.11 25.5053 100.914 25.5053C101.243 25.5053 101.612 25.4525 102.021 25.3339C102.43 25.2153 102.772 25.0835 103.049 24.9253C103.168 25.0439 103.273 25.1889 103.366 25.3603C103.458 25.5316 103.511 25.7425 103.511 25.9798C103.511 26.4148 103.26 26.7575 102.746 27.0343C102.245 27.3111 101.533 27.4429 100.637 27.4429H100.65Z" fill="white"/>
<path d="M107.373 26.0325C107.373 25.7952 107.425 25.5843 107.518 25.3735C107.61 25.1626 107.742 24.9648 107.9 24.7803L115.321 15.4877H107.808C107.755 15.3954 107.689 15.2636 107.636 15.0923C107.583 14.9209 107.544 14.7364 107.544 14.5255C107.544 13.8796 107.834 13.5633 108.427 13.5633H117.772C118.102 13.8401 118.273 14.1828 118.273 14.6177C118.273 15.0132 118.089 15.4218 117.72 15.8436L110.299 25.1626H118.221C118.286 25.2548 118.339 25.3866 118.392 25.5448C118.445 25.703 118.484 25.8875 118.484 26.0984C118.484 26.7443 118.181 27.0606 117.575 27.0606H107.847C107.531 26.8102 107.386 26.4675 107.386 26.0325H107.373Z" fill="white"/>
<path d="M138.519 10.4789H127.276V12.4429H138.519V10.4789Z" fill="white"/>
<path d="M138.519 13.9851H127.276V16.7135H138.519V13.9851Z" fill="white"/>
<path d="M138.519 18.2557H127.276V20.9842H138.519V18.2557Z" fill="white"/>
<path d="M127.276 22.5264H138.519V23.9763L134.881 27.0606H127.276V22.5264Z" fill="white"/>
<path d="M140.892 18.2557H145.255L140.892 21.9596V18.2557Z" fill="white"/>
<path d="M150.29 13.9851L147.074 16.7135H140.892V13.9851H150.29Z" fill="white"/>
<path d="M138.532 6.98595H127.276V8.93674H138.532V6.98595Z" fill="white"/>
<path d="M152.135 10.4789H140.892V12.4429H152.135V10.4789Z" fill="white"/>
<path d="M144.082 27.0606L152.135 20.2197V27.0606H144.082Z" fill="white"/>
<path d="M168.097 20.2329L176.138 27.0606H168.097V20.2329Z" fill="white"/>
<path d="M179.341 0H168.097V1.95079H179.341V0Z" fill="white"/>
<path d="M179.341 3.49297H168.097V5.44376H179.341V3.49297Z" fill="white"/>
<path d="M179.341 6.98595H168.097V8.93674H179.341V6.98595Z" fill="white"/>
<path d="M179.341 10.4789H168.097V12.4429H179.341V10.4789Z" fill="white"/>
<path d="M179.341 13.9851V16.7135H173.159L169.93 13.9851H179.341Z" fill="white"/>
<path d="M174.978 18.2557H179.341V21.9596L174.978 18.2557Z" fill="white"/>
<path d="M158.541 6.98595L156.248 8.93674H154.508V6.98595H158.541Z" fill="white"/>
<path d="M165.712 3.49297H154.508V5.44376H165.712V3.49297Z" fill="white"/>
<path d="M165.712 6.98595V8.93674H163.985L161.678 6.98595H165.712Z" fill="white"/>
<path d="M160.11 13.4578L165.712 18.2162V27.0606H154.508V18.2162L160.11 13.4578Z" fill="white"/>
<path d="M152.135 12.4165V12.4429H152.109L152.135 12.4165Z" fill="white"/>
<path d="M168.111 12.4429H168.097V12.4297L168.111 12.4429Z" fill="white"/>
</svg>
