<svg width="100" height="100" viewBox="0 0 106 106" fill="none" xmlns="http://www.w3.org/2000/svg">
<path d="M40.2873 79.5528C49.4776 79.5621 58.3837 76.3838 65.4907 70.5582L73.8096 78.8771H73.8049C72.6072 82.0321 73.2271 85.588 75.4221 88.1512L87.2875 101.871C88.9605 103.801 91.3607 104.952 93.9193 105.045C94.0311 105.05 94.1383 105.05 94.2501 105.05L94.2455 105.055C96.6922 105.05 99.0317 104.081 100.765 102.356L102.779 100.338C104.601 98.5161 105.58 96.0134 105.468 93.4361C105.36 90.8589 104.172 88.4495 102.201 86.7858L88.317 75.0835C85.7446 72.8978 82.1747 72.3106 79.0336 73.5596L70.7753 65.3013C78.5815 55.9759 81.6899 43.5936 79.2199 31.6856C76.7453 19.7783 68.9623 9.66049 58.0896 4.21297C47.2169 -1.23455 34.4479 -1.40743 23.4347 3.74227C12.4175 8.88735 4.36006 18.7951 1.56352 30.6279C-1.23278 42.4654 1.54022 54.927 9.08542 64.462C16.6352 73.9972 28.1279 79.5566 40.2864 79.5518L40.2873 79.5528ZM82.3797 77.8798C83.3817 77.8798 84.351 78.2386 85.1154 78.8864L98.9991 90.5887C99.9079 91.353 100.453 92.4622 100.5 93.6506C100.551 94.8343 100.104 95.9854 99.2647 96.8244L97.2514 98.8423H97.2467C96.4218 99.6858 95.2754 100.138 94.0963 100.077C92.9219 100.04 91.8127 99.5134 91.0437 98.6186L79.1784 84.8984C78.0972 83.6401 77.8455 81.8737 78.5352 80.3638C79.2203 78.8539 80.7252 77.8844 82.3797 77.8798ZM15.6852 15.1927C22.2098 8.66809 31.0602 5.00038 40.2873 5.00038C49.5196 5.00038 58.3694 8.66809 64.8942 15.1927C71.4235 21.722 75.0865 30.5725 75.0865 39.7996C75.0865 49.0319 71.4235 57.8817 64.8942 64.4065C58.3696 70.9311 49.5192 74.5988 40.2873 74.5988C31.0597 74.5988 22.21 70.9311 15.6852 64.4065C9.13263 57.896 5.44631 49.0411 5.44631 39.7996C5.44631 30.5627 9.13263 21.708 15.6852 15.1927Z" fill="#3572CC"/>
<path d="M40.2922 70.8697C49.9486 70.8697 59.0591 66.3771 64.9409 58.7148C70.8223 51.053 72.8029 41.0897 70.305 31.7587C67.8069 22.4286 61.1101 14.7898 52.1848 11.0949C43.2601 7.39448 33.1232 8.06092 24.7586 12.8891C16.3932 17.7173 10.7497 26.1667 9.48625 35.7434C8.22327 45.3205 11.4902 54.935 18.3223 61.7665C24.1338 67.6152 32.0425 70.8915 40.2914 70.8682L40.2922 70.8697ZM21.8367 21.3433C27.5737 15.6063 35.65 12.866 43.6984 13.9239C51.7422 14.9818 58.836 19.7214 62.8948 26.7493C66.9493 33.7771 67.5086 42.2913 64.4047 49.7861C61.2962 57.2848 54.8835 62.9098 47.0444 65.012C39.2103 67.1091 30.8403 65.4454 24.4037 60.5054C17.9631 55.5654 14.1928 47.9127 14.1928 39.7998C14.1695 32.8745 16.9238 26.2288 21.8358 21.3444L21.8367 21.3433Z" fill="#3572CC"/>
<path d="M36.559 31.1025C36.559 37.7296 26.6184 37.7296 26.6184 31.1025C26.6184 24.4708 36.559 24.4708 36.559 31.1025Z" fill="#3572CC"/>
<path d="M53.9611 48.4997C53.9611 55.1268 44.0159 55.1268 44.0159 48.4997C44.0159 41.8726 53.9611 41.8726 53.9611 48.4997Z" fill="#3572CC"/>
<path d="M28.254 51.8367C28.7201 52.3027 29.3492 52.5637 30.0111 52.5637C30.6682 52.5637 31.3019 52.3027 31.7681 51.8367L52.3293 31.2755H52.3246C53.2893 30.3061 53.2893 28.7355 52.32 27.7708C51.3506 26.8015 49.7847 26.7968 48.8107 27.7615L28.2495 48.3228H28.2541C27.7834 48.7888 27.5225 49.4226 27.5225 50.0798C27.5225 50.7416 27.7833 51.3706 28.254 51.8367Z" fill="#3572CC"/>
</svg>
